<svg width="17" height="17" viewBox="0 0 17 17" fill="none" xmlns="http://www.w3.org/2000/svg">
<path d="M5.62154 0.946429C5.62154 0.794876 5.68494 0.649531 5.79778 0.542368C5.91062 0.435204 6.06366 0.375 6.22324 0.375C6.38282 0.375 6.53586 0.435204 6.6487 0.542368C6.76154 0.649531 6.82493 0.794876 6.82493 0.946429V14.9956C6.82491 15.1085 6.78965 15.2189 6.72361 15.3128C6.65756 15.4067 6.5637 15.4799 6.45387 15.5232C6.34404 15.5665 6.22317 15.5779 6.10651 15.556C5.98986 15.5341 5.88266 15.4799 5.79844 15.4001L0.205091 10.0893C0.149057 10.0362 0.1046 9.97315 0.0742673 9.90373C0.0439341 9.8343 0.0283203 9.75988 0.0283203 9.68471C0.0283203 9.60955 0.0439341 9.53513 0.0742673 9.46571C0.1046 9.39628 0.149057 9.33322 0.205091 9.28014H0.207497C0.320282 9.17337 0.47304 9.11341 0.632294 9.11341C0.791547 9.11341 0.944305 9.17337 1.05709 9.28014L5.62154 13.6184V0.946429ZM9.23171 1.75443C9.23197 1.64159 9.2674 1.53136 9.33354 1.43762C9.39967 1.34388 9.49354 1.27084 9.60332 1.22769C9.71311 1.18454 9.83388 1.17323 9.95042 1.19517C10.067 1.21712 10.1741 1.27134 10.2582 1.351L15.8516 6.66071C15.9076 6.7138 15.952 6.77685 15.9824 6.84628C16.0127 6.9157 16.0283 6.99012 16.0283 7.06529C16.0283 7.14045 16.0127 7.21487 15.9824 7.2843C15.952 7.35372 15.9076 7.41678 15.8516 7.46986H15.8491C15.7364 7.57663 15.5836 7.63659 15.4243 7.63659C15.2651 7.63659 15.1123 7.57663 14.9996 7.46986L10.4351 3.13386V15.8036C10.4351 15.9551 10.3717 16.1005 10.2589 16.2076C10.146 16.3148 9.99298 16.375 9.8334 16.375C9.67382 16.375 9.52078 16.3148 9.40794 16.2076C9.2951 16.1005 9.23171 15.9551 9.23171 15.8036V1.75443Z" fill="#737373"/>
</svg>
