<svg width="18" height="18" viewBox="0 0 18 18" fill="none" xmlns="http://www.w3.org/2000/svg">
<path d="M9 15.2222H1M17 2.77772L14 2.77772M17 15.2222L13 15.2222M10 2.77772H1M4 8.99995H1M17 8.99995H8" stroke="#737373" stroke-linecap="round"/>
<path d="M13 15.2222C13 14.2404 12.1046 13.4444 11 13.4444C9.89543 13.4444 9 14.2404 9 15.2222C9 16.2041 9.89543 17 11 17C12.1046 17 13 16.2041 13 15.2222Z" stroke="#737373" stroke-linecap="round"/>
<path d="M8 9.00005C8 8.01821 7.10457 7.22228 6 7.22228C4.89543 7.22228 4 8.01821 4 9.00005C4 9.98189 4.89543 10.7778 6 10.7778C7.10457 10.7778 8 9.98189 8 9.00005Z" stroke="#737373" stroke-linecap="round"/>
<path d="M14 2.77789C14 1.79605 13.1046 1.00011 12 1.00011C10.8954 1.00011 10 1.79605 10 2.77789C10 3.75973 10.8954 4.55566 12 4.55566C13.1046 4.55566 14 3.75973 14 2.77789Z" stroke="#737373" stroke-linecap="round"/>
</svg>
